<?xml version="1.0" encoding="utf-8"?>
<!-- Generator: Adobe Illustrator 19.1.0, SVG Export Plug-In . SVG Version: 6.00 Build 0)  -->
<svg version="1.1" id="Layer_1" xmlns="http://www.w3.org/2000/svg" xmlns:xlink="http://www.w3.org/1999/xlink" x="0px" y="0px"
	 viewBox="0 0 222.2 55" style="enable-background:new 0 0 222.2 55;" xml:space="preserve">
<style type="text/css">
	.st0{fill:#FFFFFF;}
	.st1{fill:#ED1C24;}
	.st2{fill:#B11116;}
	.st3{fill:url(#SVGID_1_);}
</style>
<g>
	<g>
		<path class="st0" d="M7.1,47.2V9.1h13.3h2.3c4.1,0,7.5,1.5,10.1,4.4c2.6,2.9,3.9,7.4,3.9,13.5c0,6.5-1.6,11.5-4.8,15
			c-3.2,3.5-7,5.2-11.5,5.2h-2.2H7.1z M12.7,41.6h5.5h2c3.2,0,5.8-1.2,7.9-3.7c2.1-2.5,3.1-6,3.1-10.6c0-4.1-0.9-7.3-2.6-9.4
			c-1.7-2.2-4-3.2-6.9-3.2h-1.2h-7.7V41.6z"/>
	</g>
	<g>
		<path class="st1" d="M45.1,13.4c0-0.6,0.2-1.1,0.7-1.5c0.5-0.4,1.3-0.6,2.3-0.6c1.9,0,2.8,0.7,2.8,2.1c0,0.6-0.3,1.2-0.8,1.6
			c-0.5,0.4-1.2,0.6-2.2,0.6c-0.9,0-1.6-0.2-2.1-0.5C45.4,14.6,45.1,14.1,45.1,13.4z M45.9,17.9c0.6,0.2,1,0.3,1.3,0.3
			c0.3,0,0.6,0.1,0.9,0.1c0.4,0,0.7,0,1-0.1c0.3-0.1,0.7-0.2,1-0.3v26.7h-4.2V17.9z"/>
		<path class="st1" d="M55.7,48.2v-3.9c1.8,1,3.3,1.7,4.5,2.1c1.3,0.3,2.6,0.5,3.9,0.5c2.2,0,3.9-0.5,5.1-1.6c1.3-1,1.9-3.1,1.9-6.2
			v-1.3c-1.5,1.7-2.9,2.8-4.3,3.5c-1.4,0.7-2.7,1-4.1,1c-2.7,0-5-1.1-6.8-3.2c-1.8-2.2-2.7-5.1-2.7-8.7c0-3.5,0.9-6.4,2.7-8.8
			c1.8-2.3,4.3-3.5,7.5-3.5c1.5,0,2.9,0.3,4.1,0.9c1.3,0.6,2.5,1.8,3.7,3.5v-3.9h4.2v20.5v1.7c0,3.5-1,6-3.1,7.5
			c-2.1,1.5-4.6,2.3-7.5,2.3c-1.6,0-3.2-0.2-4.7-0.6C58.6,49.6,57.1,49,55.7,48.2z M57.4,30.6c0,2.3,0.6,4.2,1.7,5.7
			c1.2,1.5,2.8,2.3,4.8,2.3c2,0,3.6-0.8,5-2.3c1.3-1.6,2-3.7,2-6.3c0-2.1-0.6-3.9-1.7-5.4c-1.2-1.5-2.8-2.3-5-2.3
			c-2.2,0-3.8,0.7-5,2.2S57.4,28,57.4,30.6z"/>
		<path class="st1" d="M78.7,13.4c0-0.6,0.2-1.1,0.7-1.5c0.5-0.4,1.3-0.6,2.3-0.6c1.9,0,2.8,0.7,2.8,2.1c0,0.6-0.3,1.2-0.8,1.6
			c-0.5,0.4-1.2,0.6-2.2,0.6c-0.9,0-1.6-0.2-2.1-0.5C78.9,14.6,78.7,14.1,78.7,13.4z M79.5,17.9c0.6,0.2,1,0.3,1.3,0.3
			c0.3,0,0.6,0.1,0.9,0.1c0.4,0,0.7,0,1-0.1c0.3-0.1,0.7-0.2,1-0.3v26.7h-4.2V17.9z"/>
		<path class="st1" d="M86.1,19.7c3.2-1.5,5.3-4,6.3-7.6h1.7c-0.1,2.2-0.1,4.4-0.1,6.6h8.8v3.7h-9c-0.2,4.9-0.3,8.8-0.3,11.7v1.4
			c0,2.4,0.3,4.1,1,4.9c0.7,0.8,1.6,1.2,2.8,1.2c0.8,0,1.7-0.2,2.5-0.5c0.8-0.4,1.7-1,2.7-1.9V43c-0.6,0.6-1.5,1.1-2.6,1.6
			c-1.1,0.4-2.4,0.7-3.7,0.7c-2,0-3.7-0.6-4.9-1.8c-1.3-1.2-1.9-3.8-1.9-7.8v-0.8c0-3.9,0.1-8.1,0.3-12.6h-3.6V19.7z"/>
		<path class="st1" d="M103.8,13.4c0-0.6,0.2-1.1,0.7-1.5c0.5-0.4,1.3-0.6,2.3-0.6c1.9,0,2.8,0.7,2.8,2.1c0,0.6-0.3,1.2-0.8,1.6
			c-0.5,0.4-1.2,0.6-2.2,0.6c-0.9,0-1.6-0.2-2.1-0.5C104.1,14.6,103.8,14.1,103.8,13.4z M104.6,17.9c0.6,0.2,1,0.3,1.3,0.3
			c0.3,0,0.6,0.1,0.9,0.1c0.4,0,0.7,0,1-0.1c0.3-0.1,0.7-0.2,1-0.3v26.7h-4.2V17.9z"/>
		<path class="st1" d="M111.7,44.6v-4.9l12.8-16.9h-12.8v-4.3h17.6v4.8l-12.8,17.3h12.8v3.9H111.7z"/>
		<path class="st1" d="M134.8,32.7c0.5,5.9,3,8.9,7.4,8.9c1.9,0,3.6-0.6,5.1-1.7c1.5-1.2,2.6-2.3,3.4-3.5L151,41
			c-1.6,1.6-3.1,2.7-4.7,3.3c-1.5,0.6-3.1,1-4.7,1c-3.2,0-5.9-1.2-7.9-3.5c-2-2.3-3.1-5.6-3.1-9.8c0-4.1,1-7.5,2.9-10.1
			c2-2.6,4.7-3.9,8.3-3.9c3.5,0,6.1,1.1,7.8,3.2c1.7,2.1,2.6,5.5,2.6,10.1v1.5H134.8z M134.8,29h14.1c-0.2-2.1-0.9-3.8-2.1-5
			c-1.2-1.2-2.9-1.8-5-1.8s-3.8,0.6-4.9,1.9C135.6,25.3,135,27,134.8,29z"/>
		<path d="M163.6,13h12.5l4.2,23l4.2-23h12.5v31.6h-8V24.1l-4.6,20.5h-8.5l-4.6-20.5v20.5h-8V13z"/>
		<path d="M200.1,44.6V13h22.1v7.5H208v4.4h14.1v7.5H208v4.7h14.1v7.5H200.1z"/>
	</g>
	<path class="st2" d="M13,20.5v9.3c2,0.4,3.9,0.7,6.1,1.2c0.1,0,0.3,0,0.3,0c4,0.8,7.3,1.4,9.9,2.1c0.4-1.3,0.7-2.8,0.7-4.4v0
		c0-0.4,0.1-0.9,0.1-1.4c0-3.2-0.6-5.3-1.6-7.3c0,0,0,0.5,0,0.5h0c0,0,0,0.2,0,0.2c-2-0.5-4.2-1.2-6.8-1.2h0c-0.1,0-0.5-0.7-0.6-0.7
		c-3-0.6-5.1-1.8-8.1-2.3V20.5 M6,22.5v-8c-3-0.9-3.5-1.7-3.2-2.5c-0.2,0.3-0.3,0.6-0.4,0.9c-0.5,0.9-0.9,1.9-1.2,2.9
		c-0.3,1-0.6,2-0.7,3.1c-0.1,1-0.4,2.3-0.4,3.3c0,0.8,0,1.9,0,2.7c0,0,0,0,0,0c0,0.1,0.1,0.2,0.1,0.2c0.3,1,1.9,1.9,5.9,3V22.5
		 M40.5,24.3c-0.2-0.8-1.3-1.5-3.3-2.3c0,0-0.1,0-0.1,0c0,0-0.1,0-0.1,0c0,0,0,0,0,0c0,1.4,0,2.9,0,4.5v0c0,0.1,0.3,0.3,0.3,0.4
		c0,2.7-0.1,5.1-0.7,7.3c0.1-0.1,0.2-0.1,0.2-0.2c0.5-0.8,1.2-1.8,1.6-2.6c0.4-0.9,0.9-2,1.2-2.9c0.3-0.9,0.6-2.2,0.8-3.1l0.1-0.9
		C40.5,24.5,40.5,24.4,40.5,24.3z"/>
	<path class="st1" d="M38.2,12.6c0,0.8-1.1,1.5-3.3,2.3c0,0,0.1,0,0.1,0v0c-0.7-0.8-1.1-0.8-1.6-1.4c-2.8-3.1-6.5-4-10.9-4h-7.8
		c1.4,0,2.8-1.2,4.4-1.5c8.3-1.5,9.9-2.5,10.3-3.3c0-0.1-0.1-0.4-0.1-0.4C34.8,7,37,10.6,38.2,12.6z"/>
	<path class="st1" d="M6,34.2v9.2c-1-0.6-1-1.3-1.5-1.9c-0.6-0.8-1.1-1.7-1.6-2.6c-0.3-0.6-0.6-1.2-0.8-1.9c0-0.2-0.1-0.3,0-0.5
		C2.3,35.8,3,35,6,34.2z"/>
	<path class="st1" d="M6,10.2v11.5c0,0-0.1,0-0.1,0C2.2,22.8,1,23.8,0,24.8c0,0,0,0,0,0c0,0.1,0.1,0.2,0.1,0.2C0,24.2,0,23,0,22.1
		c0-1,0.2-2.3,0.3-3.3c0.2-1.1,0.4-2.1,0.8-3.1c0.3-1,0.7-2,1.2-2.9c0.2-0.3,0.2-0.6,0.4-0.9C3.1,11.4,4,10.8,6,10.2z"/>
	<path class="st1" d="M41.2,29.6c0,2.9-0.6,5.5-1.6,8C39.1,38.4,37,39.2,34,40c1-1.7,2-3.6,2-5.7c0,0,0,0,0,0c0,0,0.3,0,0.3,0
		c0.5-2.2,1-4.7,1-7.3c0-0.1,0.1,0.2,0.1,0.1c0,0,0.1,0.5,0.1,0.5c0,0,0,0,0,0c2.3-1,2.6-2.1,2.7-2.7c0,0-0.2-0.5-0.2-0.5v0
		c0,0,0.3-0.1,0.3-0.1l0.3,0.6C40.9,26.3,41.2,27.9,41.2,29.6z"/>
	<path class="st1" d="M29.2,33.8c-0.5,1.7-1.1,3.1-2.1,4.3c-1.9,2.3-4.1,3.4-7.1,3.4H13v-9.2c2-0.4,4-0.8,6.1-1.3
		c0.6-0.1,1.3-0.2,1.9-0.4c3.6-0.7,6.6-1.4,8.9-2c0,0,0,0,0,0v0c0,1.6-0.2,4.8-0.6,5.8c0,0-0.4,0-0.4,0"/>
	<path class="st1" d="M21.5,16.5c2,0,3.2,0,4.6,1C24.7,17.9,23,17.6,21,18v0c0,0.3-1.2,0.3-1.9,0.5c-2.3,0.5-4.1,0.9-6.1,1.3v-3.3
		H21.5z"/>
	<linearGradient id="SVGID_1_" gradientUnits="userSpaceOnUse" x1="21.7066" y1="16.2181" x2="32.0841" y2="5.472">
		<stop  offset="0" style="stop-color:#FFFFFF;stop-opacity:0"/>
		<stop  offset="0.1845" style="stop-color:#FCFCFC;stop-opacity:0.1845"/>
		<stop  offset="0.3174" style="stop-color:#F3F3F3;stop-opacity:0.3174"/>
		<stop  offset="0.4342" style="stop-color:#E3E3E3;stop-opacity:0.4342"/>
		<stop  offset="0.5417" style="stop-color:#CDCDCD;stop-opacity:0.5417"/>
		<stop  offset="0.6429" style="stop-color:#B0B0B0;stop-opacity:0.6429"/>
		<stop  offset="0.7393" style="stop-color:#8C8C8C;stop-opacity:0.7393"/>
		<stop  offset="0.832" style="stop-color:#626262;stop-opacity:0.832"/>
		<stop  offset="0.9194" style="stop-color:#333333;stop-opacity:0.9194"/>
		<stop  offset="1" style="stop-color:#000000"/>
	</linearGradient>
	<path class="st3" d="M38.2,12.6c0,0.8-1.1,1.5-3.3,2.3c0,0,0.1,0,0.1,0v0c-0.7-0.8-1.1-0.8-1.6-1.4c-2.8-3.1-6.5-4-10.9-4h-7.8
		c1.4,0,2.8-1.2,4.4-1.5c8.3-1.5,9.9-2.5,10.3-3.3c0-0.1-0.1-0.4-0.1-0.4C34.8,7,37,10.6,38.2,12.6z"/>
	<path class="st2" d="M36.1,42.5c-0.2,0.1-14.5,14.7-30.7,7.7C-4.3,46,2.1,36.5,2.1,36.5c0,0-0.1,0-0.1,0c0.7,2.7,2,5,4,6.8v4.8
		c0,0,9.8,0.3,14.2,0C28.3,47.6,36,42.5,36.1,42.5z"/>
	<path class="st1" d="M42.4,0c0,0,0.3,6.6-4.1,15.8c-3.6-3.6-7.6-9.2-10.9-12.5C35.5,3.2,42.4,0,42.4,0z"/>
</g>
</svg>
